<?xml version="1.0" encoding="utf-8"?>
<!-- Generator: Adobe Illustrator 24.3.0, SVG Export Plug-In . SVG Version: 6.00 Build 0)  -->
<svg version="1.1" id="Layer_1" xmlns="http://www.w3.org/2000/svg" xmlns:xlink="http://www.w3.org/1999/xlink" x="0px" y="0px"
	 viewBox="0 0 346.1 335.5" style="enable-background:new 0 0 346.1 335.5;" xml:space="preserve">
<style type="text/css">
	.st0{display:none;}
	.st1{display:inline;}
	.st2{fill:#FFFFFF;}
	.st3{fill:#B398C8;}
	.st4{fill:none;stroke:#B298C8;stroke-width:2;stroke-miterlimit:10;stroke-dasharray:8.0119,8.0119;}
	.st5{opacity:0.4;fill:#B298C8;enable-background:new    ;}
	.st6{fill:none;stroke:#B298C8;stroke-miterlimit:10;}
	.st7{fill:#B298C8;}
	.st8{display:inline;fill:#B198C8;}
</style>
<g id="YwGxHj.tif" class="st0">
	
		<image style="display:inline;overflow:visible;enable-background:new    ;" width="347" height="342" id="Layer_1_2_" xlink:href="26E75E049560EA86.png"  transform="matrix(0.9971 0 0 0.9971 897.5533 179.8503)">
	</image>
</g>
<g class="st0">
	<g class="st1">
		<path class="st2" d="M1142.5,337c-1.9-2.9-5.3-4.6-9.1-4.6h-18.5c0.2-2.8,0.3-5.1,0.3-6.7s-1.3-2.8-2.9-2.8H997.6
			c-1.6,0-2.9,1.3-2.9,2.8c0.2,12.3,3.3,60.8,42.7,72.7h-36.9c-2.3,0-4.9,1.8-5.8,3.9l-1.2,3c-0.8,2.2,0.3,3.9,2.7,3.9h117.2
			c2.3,0,3.5-1.8,2.7-3.9l-1.2-3c-0.8-2.2-3.4-3.9-5.8-3.9H1074c13.4-4.2,22.4-13,28.4-23.1c25.4-0.7,36.3-18.3,40.6-28.9
			C1144.6,343.2,1144.3,339.7,1142.5,337z M1135.4,343.2c-3.9,9.6-11.9,20.9-28.1,23.1c3.7-8.7,5.7-17.8,6.7-25.3h19.4
			c1.1,0,1.8,0.4,2,0.8C1135.7,342.1,1135.7,342.6,1135.4,343.2z"/>
		<path class="st2" d="M1053.9,319.2c0.6,0.7,1.4,1,2.3,1c0.7,0,1.4-0.2,2-0.7c1.3-1.1,1.4-3,0.3-4.3c-0.1-0.1-8.1-9.6-2.9-16
			c6.9-8.6,2.7-15.7-0.5-18.2c-1.3-1-3.2-0.8-4.2,0.5s-0.8,3.2,0.5,4.2c0.7,0.6,4.1,4-0.5,9.8
			C1042.5,305.8,1053.4,318.6,1053.9,319.2z"/>
		<path class="st2" d="M1070.1,265.1c1.3-1,1.5-2.9,0.5-4.2c-1-1.3-2.9-1.5-4.2-0.5c-3.2,2.5-7.4,9.6-0.5,18.2
			c5.2,6.5-2.9,16-2.9,16c-1.1,1.3-1,3.2,0.3,4.3c0.6,0.5,1.3,0.7,2,0.7c0.8,0,1.7-0.4,2.3-1c0.5-0.5,11.4-13.4,3.1-23.8
			C1065.9,269.1,1069.3,265.8,1070.1,265.1z"/>
	</g>
</g>
<g class="st0">
	<g class="st1">
		<path class="st2" d="M1065.4,388.1c20.3,0,36.9-16.5,36.9-36.9s-16.5-36.9-36.9-36.9c-20.3,0-36.9,16.6-36.9,36.9
			C1028.5,371.6,1045,388.1,1065.4,388.1z"/>
		<path class="st2" d="M1065.4,398c25.8,0,46.8-20.9,46.8-46.8c0-25.8-20.9-46.8-46.8-46.8c-25.8,0-46.8,20.9-46.8,46.8
			C1018.6,377.1,1039.5,398,1065.4,398z M1065.4,311.6c21.8,0,39.6,17.8,39.6,39.6c0,21.8-17.8,39.6-39.6,39.6s-39.6-17.8-39.6-39.6
			C1025.8,329.4,1043.5,311.6,1065.4,311.6z"/>
		<path class="st2" d="M1138.2,402.4l-2.7-105c0-2.3-1.8-4.1-4.1-4.1c-0.6,0-1.2,0.1-1.7,0.4l0,0c0,0-0.1,0.1-0.3,0.2
			c-0.4,0.2-0.7,0.5-1,0.8c-3,2.5-12.6,12.5-13.4,26c-1.2,20.7,8.8,29,12.2,36.7l-2.7,45c0,2.3,4.6,4.1,6.8,4.1
			C1133.6,406.5,1138.2,404.6,1138.2,402.4z"/>
		<path class="st2" d="M986.5,338.4l7.1,3.5c0.8,0.4,1.7,0.7,2.6,0.9l-2.7,61.4c0,1.9,4.6,3.4,6.8,3.4c2.3,0,6.8-1.5,6.8-3.4
			l-2.7-61.7c1-0.3,1.9-0.7,2.7-1.2l5.2-3.2c3.8-2.3,6.6-7.4,6.6-11.8v-27.5c0-2.3-1.8-4.1-4.1-4.1s-4.1,1.8-4.1,4.1v24.8h-2.3
			v-24.8c0-2.3-1.8-4.1-4.1-4.1s-4.1,1.8-4.1,4.1v24.8h-2.3v-24.8c0-2.3-1.8-4.1-4.1-4.1s-4.1,1.8-4.1,4.1v24.8h-2.3v-23.9
			c0-2.3-1.8-4.1-4.1-4.1s-4.1,1.8-4.1,4.1v27.1C979.4,331.4,982.4,336.4,986.5,338.4z"/>
	</g>
</g>
<g>
	<path class="st3" d="M217.1,63.6c6.7,3.9,13.9,7.1,21.2,9.7c27,9.6,63.3,7.9,83,32c9.9,12.1,12.5,29.3,8.5,44.5
		c-4.7,18.2-17.5,31.4-31.8,42.8c-8.7,6.9-18.5,12-26.9,19.4c-9.3,8.3-17.3,17.8-24.5,28c-22.5,32-31.8,84.2-81,81.2
		c-39.4-2.5-75.2-24.7-102.7-51.7c-20.7-20.4-41.5-44.7-47.1-74.1c-5.2-27.4,6.8-55.6,28.2-73.1c8-6.5,17.2-11.7,24.3-19.3
		c22.1-23.6,14.1-69.9,47.6-83.5c7.6-3.1,16-3.7,24.2-3.2c15.4,1,31.1,6.2,42.8,16.6c8.6,7.6,14.7,17.1,24,24.1
		C210.1,59.4,213.5,61.6,217.1,63.6z"/>
	<g>
		<path class="st4" d="M220.8,54.6c7.3,4.2,15.1,7.7,23,10.5c29.3,10.5,68.7,8.6,90.1,34.7c10.8,13.2,13.6,31.9,9.3,48.3
			c-5.2,19.7-19,34.1-34.5,46.5c-9.4,7.5-20.1,13-29.2,21.1c-10.1,9-18.8,19.4-26.6,30.4c-24.4,34.8-34.6,91.5-88,88.2
			c-42.8-2.7-81.6-26.8-111.5-56.2C30.9,256,8.3,229.6,2.3,197.7c-5.6-29.8,7.4-60.4,30.6-79.4c8.7-7.1,18.7-12.7,26.4-20.9
			c24-25.6,15.3-75.9,51.7-90.7c8.2-3.4,17.4-4,26.3-3.5c16.7,1,33.8,6.8,46.5,18c9.4,8.3,16,18.6,26,26.1
			C213.3,49.9,217,52.4,220.8,54.6z"/>
	</g>
	<path class="st5" d="M60.4,21.2c9-7.7,19.3-13.7,30.5-17.4c44.9-14.7,96,14.7,112.3,57.7c1.6,4.1,2.8,8.3,3.7,12.6
		c0.7,3.3,1.2,6.7,1.6,10.1c0.1,1.1,23.1,8.8,25.4,9.9c10.8,5.1,21.2,11,31,17.8c21.4,14.9,40.7,34.7,49.8,59.6
		c11,30.1,4.7,65.2-12.4,91.7c-17.8,27.8-45.6,42.2-78.3,42.2c-59.8-0.1-119.6-35.7-158.3-79.4C25.5,180.6,7.2,105.5,37.2,50.1
		C43,39.2,50.9,29.2,60.4,21.2z"/>
	<circle class="st6" cx="243.4" cy="34.7" r="10.8"/>
	<circle class="st7" cx="10.6" cy="94.3" r="8.2"/>
	<circle class="st6" cx="311.2" cy="244.6" r="12.8"/>
	<circle class="st7" cx="272.5" cy="266.9" r="8.2"/>
	<g>
		<g>
			<path class="st2" d="M96.1,107.6c0,2.1,1.7,3.7,3.7,3.7h16.4c1.1,0,3.1,0.8,3.9,1.6l9.7,9.3h-10.9c-6.2,0-7.5,3.4-3,7.6
				l47.3,43.8c1.1,1,2.4,1.8,3.7,2.3v50l-21.9,9.5c-1.9,0.8-1.8,1.5,0.3,1.5h52c2.1,0,2.2-0.6,0.3-1.4l-23.2-9.6v-49.8
				c1.8-0.6,3.4-1.5,4.8-2.9l40.7-42.7c4.3-4.5,2.7-8.1-3.5-8.1h-75.8l-15.3-14.7c-2.2-2.1-6-3.6-9-3.6H99.9
				C97.8,103.8,96.1,105.5,96.1,107.6z"/>
			<path class="st2" d="M244.5,128.7c0.5-8.4-2.3-16.4-7.8-22.7c-5.6-6.3-13.2-10-21.6-10.5c-14.7-0.9-27.9,8.4-32,22.6l7.2,2.1
				c3.1-10.8,13.1-17.8,24.4-17.2c6.4,0.4,12.2,3.2,16.4,8s6.4,10.9,6,17.3s-3.2,12.2-8,16.4c-4.8,4.2-10.9,6.3-17.3,6
				c-2.4-0.1-4.8-0.7-7-1.5l-2.6,7c2.9,1.1,6,1.8,9.2,2c0.6,0,1.3,0.1,2,0.1c7.7,0,15-2.8,20.8-7.9C240.3,144.7,244,137,244.5,128.7
				z"/>
		</g>
	</g>
</g>
<g class="st0">
	<g class="st1">
		<path class="st2" d="M1134.1,335.1H992.3v-40.3c0-4.9-4-8.8-8.8-8.8c-4.9,0-8.8,3.9-8.8,8.8v91.5c0,4.9,3.9,8.8,8.8,8.8
			c4.9,0,8.8-4,8.8-8.8v-4.4h132.9v4.4c0,4.9,3.9,8.8,8.8,8.8c4.9,0,8.8-4,8.8-8.8V344C1142.9,339,1138.9,335.1,1134.1,335.1z"/>
		<path class="st2" d="M994.9,313v19.9h19.3c5.5-5.5,5.5-14.4,0-19.9S1000.4,307.5,994.9,313z"/>
	</g>
	<rect x="992.3" y="366.4" class="st8" width="132.9" height="4.7"/>
</g>
</svg>
