<?xml version="1.0" encoding="utf-8"?>
<!-- Generator: Adobe Illustrator 24.3.0, SVG Export Plug-In . SVG Version: 6.00 Build 0)  -->
<svg version="1.1" id="Layer_1" xmlns="http://www.w3.org/2000/svg" xmlns:xlink="http://www.w3.org/1999/xlink" x="0px" y="0px"
	 viewBox="0 0 346.1 335.5" style="enable-background:new 0 0 346.1 335.5;" xml:space="preserve">
<style type="text/css">
	.st0{display:none;}
	.st1{display:inline;}
	.st2{fill:#FFFFFF;}
	.st3{fill:#B398C8;}
	.st4{fill:none;stroke:#B298C8;stroke-width:2;stroke-miterlimit:10;stroke-dasharray:8.0119,8.0119;}
	.st5{opacity:0.4;fill:#B298C8;}
	.st6{fill:none;stroke:#B298C8;stroke-miterlimit:10;}
	.st7{fill:#B298C8;}
	.st8{fill:#B198C8;}
</style>
<g id="YwGxHj.tif" class="st0">
	
		<image style="display:inline;overflow:visible;" width="346" height="341" id="Layer_1_2_" xlink:href="F2D8D0581486DB13.png"  transform="matrix(1 0 0 1 1172.2826 597.126)">
	</image>
</g>
<g class="st0">
	<g class="st1">
		<path class="st2" d="M1417.3,754.3c-1.9-2.9-5.3-4.6-9.1-4.6h-18.5c0.2-2.8,0.3-5.1,0.3-6.7c0-1.6-1.3-2.8-2.9-2.8h-114.7
			c-1.6,0-2.9,1.3-2.9,2.8c0.2,12.3,3.3,60.8,42.7,72.7h-36.9c-2.3,0-4.9,1.8-5.8,3.9l-1.2,3c-0.8,2.2,0.3,3.9,2.7,3.9h117.2
			c2.3,0,3.5-1.8,2.7-3.9l-1.2-3c-0.8-2.2-3.4-3.9-5.8-3.9h-35.1c13.4-4.2,22.4-13,28.4-23.1c25.4-0.7,36.3-18.3,40.6-28.9
			C1419.4,760.4,1419.1,757,1417.3,754.3z M1410.2,760.5c-3.9,9.6-11.9,20.9-28.1,23.1c3.7-8.7,5.7-17.8,6.7-25.3h19.4
			c1.1,0,1.8,0.4,2,0.8C1410.4,759.4,1410.4,759.9,1410.2,760.5z"/>
		<path class="st2" d="M1328.6,736.4c0.6,0.7,1.4,1,2.3,1c0.7,0,1.4-0.2,2-0.7c1.3-1.1,1.4-3,0.3-4.3c-0.1-0.1-8.1-9.6-2.9-16
			c6.9-8.6,2.7-15.7-0.5-18.2c-1.3-1-3.2-0.8-4.2,0.5c-1,1.3-0.8,3.2,0.5,4.2c0.7,0.6,4.1,4-0.5,9.8
			C1317.3,723.1,1328.2,735.9,1328.6,736.4z"/>
		<path class="st2" d="M1344.8,682.4c1.3-1,1.5-2.9,0.5-4.2c-1-1.3-2.9-1.5-4.2-0.5c-3.2,2.5-7.4,9.6-0.5,18.2
			c5.2,6.5-2.9,16-2.9,16c-1.1,1.3-1,3.2,0.3,4.3c0.6,0.5,1.3,0.7,2,0.7c0.8,0,1.7-0.4,2.3-1c0.5-0.5,11.4-13.4,3.1-23.8
			C1340.7,686.4,1344.1,683,1344.8,682.4z"/>
	</g>
</g>
<g class="st0">
	<g class="st1">
		<path class="st2" d="M1340.1,805.4c20.3,0,36.9-16.5,36.9-36.9c0-20.3-16.5-36.9-36.9-36.9c-20.3,0-36.9,16.6-36.9,36.9
			C1303.2,788.8,1319.8,805.4,1340.1,805.4z"/>
		<path class="st2" d="M1340.1,815.3c25.8,0,46.8-20.9,46.8-46.8c0-25.8-20.9-46.8-46.8-46.8c-25.8,0-46.8,20.9-46.8,46.8
			C1293.3,794.3,1314.3,815.3,1340.1,815.3z M1340.1,728.9c21.8,0,39.6,17.8,39.6,39.6c0,21.8-17.8,39.6-39.6,39.6
			s-39.6-17.8-39.6-39.6C1300.5,746.7,1318.3,728.9,1340.1,728.9z"/>
		<path class="st2" d="M1412.9,819.6l-2.7-105c0-2.3-1.8-4.1-4.1-4.1c-0.6,0-1.2,0.1-1.7,0.4v0c0,0-0.1,0.1-0.3,0.2
			c-0.4,0.2-0.7,0.5-1,0.8c-3,2.5-12.6,12.5-13.4,26c-1.2,20.7,8.8,29,12.2,36.7l-2.7,45c0,2.3,4.6,4.1,6.8,4.1
			C1408.3,823.7,1412.9,821.9,1412.9,819.6z"/>
		<path class="st2" d="M1261.3,755.7l7.1,3.5c0.8,0.4,1.7,0.7,2.6,0.9l-2.7,61.4c0,1.9,4.6,3.4,6.8,3.4c2.3,0,6.8-1.5,6.8-3.4
			l-2.7-61.7c1-0.3,1.9-0.7,2.7-1.2l5.2-3.2c3.8-2.3,6.6-7.4,6.6-11.8v-27.5c0-2.3-1.8-4.1-4.1-4.1c-2.3,0-4.1,1.8-4.1,4.1v24.8
			h-2.3v-24.8c0-2.3-1.8-4.1-4.1-4.1c-2.3,0-4.1,1.8-4.1,4.1v24.8h-2.3v-24.8c0-2.3-1.8-4.1-4.1-4.1c-2.3,0-4.1,1.8-4.1,4.1v24.8
			h-2.3V717c0-2.3-1.8-4.1-4.1-4.1c-2.3,0-4.1,1.8-4.1,4.1v27.1C1254.1,748.7,1257.2,753.6,1261.3,755.7z"/>
	</g>
</g>
<g class="st0">
	<g class="st1">
		<path class="st2" d="M1266.5,706.6c0,2.1,1.7,3.7,3.7,3.7h16.4c1.1,0,3.1,0.8,3.9,1.6l9.7,9.3h-10.9c-6.2,0-7.5,3.4-3,7.6
			l47.3,43.8c1.1,1,2.4,1.8,3.8,2.3v50l-21.9,9.5c-1.9,0.8-1.8,1.5,0.3,1.5h52c2.1,0,2.2-0.6,0.3-1.4l-23.2-9.6V775
			c1.8-0.6,3.4-1.5,4.8-2.9l40.7-42.7c4.3-4.5,2.7-8.1-3.5-8.1H1311l-15.3-14.7c-2.2-2.1-6-3.6-9-3.6h-16.4
			C1268.2,702.9,1266.5,704.5,1266.5,706.6z"/>
		<path class="st2" d="M1415,727.7c0.5-8.4-2.3-16.4-7.8-22.7c-5.6-6.3-13.2-10-21.6-10.5c-14.7-0.9-27.9,8.4-32,22.6l7.2,2.1
			c3.1-10.8,13.1-17.8,24.4-17.2c6.4,0.4,12.2,3.2,16.4,8c4.2,4.8,6.4,10.9,6,17.3c-0.4,6.4-3.2,12.2-8,16.4
			c-4.8,4.2-10.9,6.3-17.3,6c-2.4-0.1-4.8-0.7-7-1.5l-2.6,7c2.9,1.1,6,1.8,9.2,2c0.6,0,1.3,0.1,2,0.1c7.7,0,15-2.8,20.8-7.9
			C1410.7,743.8,1414.5,736.1,1415,727.7z"/>
	</g>
</g>
<g>
	<path class="st3" d="M217.1,63.7c6.7,3.9,13.9,7.1,21.2,9.7c27,9.6,63.3,7.9,83,32c9.9,12.1,12.5,29.3,8.5,44.5
		c-4.7,18.2-17.5,31.4-31.8,42.8c-8.7,6.9-18.5,12-26.9,19.4c-9.3,8.3-17.3,17.8-24.5,28c-22.5,32-31.8,84.2-81,81.2
		c-39.4-2.5-75.2-24.7-102.7-51.7c-20.7-20.4-41.5-44.7-47.1-74.1c-5.2-27.4,6.8-55.6,28.2-73.1c8-6.5,17.2-11.7,24.3-19.3
		C90.5,79.5,82.4,33.2,116,19.5c7.6-3.1,16-3.7,24.2-3.2c15.4,1,31.1,6.2,42.8,16.6c8.6,7.6,14.7,17.1,24,24.1
		C210.1,59.4,213.5,61.6,217.1,63.7z"/>
	<g>
		<path class="st4" d="M220.8,54.6c7.3,4.2,15.1,7.7,23,10.5c29.3,10.5,68.7,8.6,90.1,34.7c10.8,13.2,13.6,31.9,9.3,48.3
			c-5.2,19.7-19,34.1-34.5,46.5c-9.4,7.5-20.1,13-29.2,21.1c-10.1,9-18.8,19.4-26.6,30.4c-24.4,34.8-34.6,91.5-88,88.2
			c-42.8-2.7-81.6-26.8-111.5-56.2C30.9,256,8.3,229.6,2.3,197.7c-5.6-29.8,7.4-60.4,30.6-79.4c8.7-7.1,18.7-12.7,26.4-20.9
			c24-25.6,15.3-75.9,51.7-90.7c8.2-3.4,17.4-4,26.3-3.5c16.7,1,33.8,6.8,46.5,18c9.4,8.3,16,18.6,26,26.1
			C213.3,50,217,52.4,220.8,54.6z"/>
	</g>
	<path class="st5" d="M60.4,21.2c9-7.7,19.3-13.7,30.5-17.4c44.9-14.7,96,14.7,112.3,57.7c1.6,4.1,2.8,8.3,3.7,12.6
		c0.7,3.3,1.2,6.7,1.6,10.1c0.1,1.1,23.1,8.8,25.4,9.9c10.8,5.1,21.2,11,31,17.8c21.4,14.9,40.7,34.7,49.8,59.6
		c11,30.1,4.7,65.2-12.4,91.7c-17.8,27.8-45.6,42.2-78.3,42.2c-59.8-0.1-119.6-35.7-158.3-79.4C25.5,180.6,7.2,105.4,37.1,50.1
		C43,39.2,50.9,29.3,60.4,21.2z"/>
	<circle class="st6" cx="243.4" cy="34.8" r="10.8"/>
	<circle class="st7" cx="10.6" cy="94.4" r="8.2"/>
	<circle class="st6" cx="311.2" cy="244.6" r="12.8"/>
	<circle class="st7" cx="272.5" cy="266.9" r="8.2"/>
	<g>
		<g>
			<path class="st2" d="M238.3,153.3H96.6V113c0-4.9-4-8.8-8.8-8.8c-4.9,0-8.8,3.9-8.8,8.8v91.5c0,4.9,3.9,8.8,8.8,8.8
				c4.9,0,8.8-4,8.8-8.8v-4.4h132.9v4.4c0,4.9,3.9,8.8,8.8,8.8c4.9,0,8.8-4,8.8-8.8v-42.3C247.2,157.3,243.2,153.3,238.3,153.3z"/>
			<path class="st2" d="M99.2,131.2v19.9h19.3c5.5-5.5,5.5-14.4,0-19.9C113,125.7,104.7,125.7,99.2,131.2z"/>
		</g>
		<rect x="96.6" y="184.6" class="st8" width="132.9" height="4.7"/>
	</g>
</g>
</svg>
