<svg id="layer_1" data-name="layer 1" xmlns="http://www.w3.org/2000/svg" viewBox="0 0 504.5 521.01"><defs><style>.cls-1,.cls-3{fill:#68CBF6;}.cls-2,.cls-4{fill:none;stroke:#68CBF6;stroke-miterlimit:10;}.cls-2{stroke-width:4px;stroke-dasharray:8.01 8.01;}.cls-3{opacity:0.5;}.cls-4{stroke-width:2px;}.cls-5{fill:#fff;}</style></defs><title>JavaScript</title><g id="bubbles"><path class="cls-1" d="M218.63,302.6a190.9,190.9,0,0,0,14.57-31.86c14.42-40.56,11.87-95.1,48.08-124.69,18.18-14.88,44-18.78,66.85-12.77,27.35,7.06,47.18,26.29,64.3,47.77,10.37,13.07,18,27.8,29.15,40.42,12.47,14,26.74,26,42.07,36.8,48.07,33.81,126.5,47.78,122,121.7-3.75,59.19-37.11,113-77.67,154.29-30.65,31.1-67.16,62.35-111.33,70.76-41.16,7.82-83.53-10.21-109.82-42.36-9.77-12-17.58-25.84-29-36.51C242.36,493,172.8,505,152.37,454.64c-4.66-11.42-5.56-24-4.81-36.36,1.51-23.14,9.32-46.73,24.94-64.3,11.42-12.92,25.69-22.09,36.21-36.06A134.85,134.85,0,0,0,218.63,302.6Z" transform="translate(-123.03 -108.25)"/><path class="cls-2" d="M205.11,297a211,211,0,0,0,15.77-34.56c15.78-44,12.92-103.21,52.13-135.36,19.83-16.23,47.93-20.44,72.57-14,29.6,7.82,51.23,28.55,69.86,51.84,11.27,14.12,19.53,30.19,31.7,43.87,13.52,15.17,29.15,28.24,45.67,40,52.28,36.66,137.47,52,132.51,132.21-4.05,64.3-40.26,122.59-84.43,167.52-33.2,33.8-72.87,67.75-120.79,76.77-44.77,8.41-90.75-11.12-119.29-46-10.67-13.07-19.08-28.09-31.4-39.66-38.46-36.06-114-23-136.27-77.67-5.11-12.32-6-26.14-5.26-39.51,1.51-25.09,10.22-50.79,27.05-69.87,12.47-14.12,27.94-24,39.21-39.06A177.17,177.17,0,0,0,205.11,297Z" transform="translate(-123.03 -108.25)"/><path class="cls-3" d="M154.93,538a136.62,136.62,0,0,1-26.15-45.82C106.7,424.74,150.87,348,215.47,323.48a118,118,0,0,1,18.93-5.56c5-1.05,10.07-1.8,15.18-2.4,1.65-.15,13.22-34.71,14.87-38.17a325.49,325.49,0,0,1,26.74-46.57c22.39-32.15,52.13-61.15,89.54-74.82,45.23-16.52,98-7.06,137.77,18.63,41.77,26.74,63.4,68.51,63.4,117.64-.15,89.84-53.63,179.68-119.29,237.83-68.2,60.39-181,87.89-264.27,42.81A147.66,147.66,0,0,1,154.93,538Z" transform="translate(-123.03 -108.25)"/><circle class="cls-4" cx="52.18" cy="154.84" r="16.23"/><circle class="cls-1" cx="141.72" cy="504.59" r="12.32"/><circle class="cls-4" cx="367.53" cy="52.97" r="19.23"/><circle class="cls-1" cx="401.03" cy="111.12" r="12.32"/><path class="cls-5" d="M286.56,281V456.47H462V281Zm95.55,136.83c0,17.07-10,24.84-24.63,24.84-13.2,0-20.84-6.83-24.73-15.06l13.43-8.13c2.59,4.6,4.94,8.49,10.6,8.49,5.42,0,8.84-2.12,8.84-10.36V361.58h16.49Zm38.95,24.87c-15.31,0-25.21-7.3-30.05-16.86l13.4-7.78c3.53,5.77,8.14,10,16.26,10,6.83,0,11.2-3.41,11.2-8.13,0-5.65-4.49-7.66-12-10.94l-4.13-1.77C403.85,402.19,396,395.84,396,382.42c0-12.37,9.42-21.78,24.14-21.78,10.48,0,18,3.65,23.45,13.2l-12.84,8.25c-2.83-5.07-5.88-7.07-10.61-7.07s-7.89,3.06-7.89,7.07c0,4.94,3.06,7,10.14,10l4.12,1.77c14,6,21.91,12.13,21.91,25.9C448.37,434.6,436.72,442.73,421.06,442.73Z" transform="translate(-123.03 -108.25)"/></g></svg>