<svg id="layer_1" data-name="layer 1" xmlns="http://www.w3.org/2000/svg" viewBox="0 0 504.5 521.01"><defs><style>.cls-1,.cls-3{fill:#68CBF6;}.cls-2,.cls-4{fill:none;stroke:#68CBF6;stroke-miterlimit:10;}.cls-2{stroke-width:4px;stroke-dasharray:8.01 8.01;}.cls-3{opacity:0.5;}.cls-4{stroke-width:2px;}.cls-5{fill:#fff;}</style></defs><title>Java</title><g id="bubbles"><path class="cls-1" d="M221.09,302.6a190.94,190.94,0,0,0,14.58-31.86c14.42-40.56,11.86-95.1,48.07-124.69,18.18-14.88,44-18.78,66.86-12.77,27.34,7.06,47.17,26.29,64.3,47.77,10.37,13.07,18,27.8,29.15,40.42,12.47,14,26.74,26,42.06,36.8,48.08,33.81,126.5,47.78,122,121.7-3.76,59.19-37.11,113-77.68,154.29-30.65,31.1-67.15,62.35-111.32,70.76-41.17,7.82-83.54-10.21-109.83-42.36-9.76-12-17.58-25.84-29-36.51-35.46-33.2-105-21.18-125.45-71.51-4.66-11.42-5.56-24-4.81-36.36,1.5-23.14,9.31-46.73,24.94-64.3,11.42-12.92,25.69-22.09,36.21-36.06A134.78,134.78,0,0,0,221.09,302.6Z" transform="translate(-125.5 -108.25)"/><path class="cls-2" d="M207.57,297a211.07,211.07,0,0,0,15.78-34.56c15.77-44,12.92-103.21,52.13-135.36,19.83-16.23,47.92-20.44,72.56-14,29.6,7.82,51.23,28.55,69.86,51.84,11.27,14.12,19.54,30.19,31.7,43.87,13.53,15.17,29.15,28.24,45.68,40,52.28,36.66,137.47,52,132.51,132.21-4.06,64.3-40.27,122.59-84.44,167.52-33.2,33.8-72.86,67.75-120.79,76.77-44.77,8.41-90.74-11.12-119.29-46-10.66-13.07-19.08-28.09-31.4-39.66-38.46-36.06-114-23-136.26-77.67-5.11-12.32-6-26.14-5.26-39.51,1.5-25.09,10.21-50.79,27-69.87,12.47-14.12,28-24,39.21-39.06A173.28,173.28,0,0,0,207.57,297Z" transform="translate(-125.5 -108.25)"/><path class="cls-3" d="M157.39,538a136.59,136.59,0,0,1-26.14-45.82C109.16,424.74,153.33,348,217.94,323.48a118,118,0,0,1,18.93-5.56c4.95-1.05,10.06-1.8,15.17-2.4,1.65-.15,13.22-34.71,14.87-38.17a325.55,325.55,0,0,1,26.75-46.57C316,198.63,345.79,169.63,383.2,156c45.22-16.52,97.95-7.06,137.77,18.63,41.76,26.74,63.4,68.51,63.4,117.64-.15,89.84-53.64,179.68-119.29,237.83C396.87,590.45,284,618,200.81,572.87A147.57,147.57,0,0,1,157.39,538Z" transform="translate(-125.5 -108.25)"/><circle class="cls-4" cx="52.18" cy="154.84" r="16.23"/><circle class="cls-1" cx="141.72" cy="504.59" r="12.32"/><circle class="cls-4" cx="367.53" cy="52.97" r="19.23"/><circle class="cls-1" cx="401.03" cy="111.12" r="12.32"/><path class="cls-5" d="M410.5,415.53c-6,1.7-19.48,4.46-38.77,4.46-18.94,0-34.41-3.24-34.46-7.06,0-2.53,3-3.64,3-3.64l-.54-.32c-9.07,1.6-17.49,4.08-17.45,7.8.08,6.72,25.83,11.77,49.37,11.77,20,0,39.23-3.35,47.91-7.76Zm-64,20.8c-4.21.84-13.38,2.95-13.38,7.4,0,6.18,19.61,10.9,38.55,10.9,26,0,36.7-6.7,37.18-7.05l-10.82-6.26c-4.62,1.1-12.36,2.82-26.35,2.82-15.59,0-25.75-2.66-25.75-5.59a2.51,2.51,0,0,1,1.11-1.9Zm106.42-41.52c-.72,14-13.64,22.67-26.55,30l1.17.68c13.78-3.87,38.35-15.15,36.32-32.5-1-8.65-8.91-14.83-19.22-14.83a28.61,28.61,0,0,0-8.38,1.28v0l-.5,1.22c9.22-1.8,17.64,4.94,17.16,14.11m-81.62,82c36.24-.31,76.77-7.4,76.67-19.32a5.8,5.8,0,0,0-2.65-4.54l-.6.34c-3.35,9.24-31.65,16.06-73.48,16.42-27,.24-64.36-6.23-64.43-13.7s17.71-11.61,17.71-11.61l-1.26-.71c-11.91,1.64-33.85,7.34-33.79,15.58.11,11.9,50.55,17.82,81.83,17.54m-3.76,8.52a286.64,286.64,0,0,1-46.78-3.56l-1.38.79c14.75,4.32,35.26,6.93,57.8,6.73,44.26-.39,80.16-11.36,80.87-24.58l-.51-.29c-3,3.61-22.12,20.31-90,20.91M312.1,391.61c0-6.67,25.32-10.41,37.12-11.32l1.13.65c-4.54.82-22.71,4-22.71,8.21,0,4.55,27.87,7.53,44.06,7.53,27.48,0,46.17-4.16,51.19-5.53l7,4.1c-4.82,2.35-25.49,8.53-58.23,8.53-36.38,0-59.6-7.12-59.6-12.17" transform="translate(-125.5 -108.25)"/><path class="cls-5" d="M422.06,298.28l-.61-.35c-11.06,3.71-45.13,17.15-45.13,42.22,0,14.18,13.84,22,13.84,35.33,0,4.74-2.68,9.19-4.86,11.85l1.1.63c5.76-3.75,16-11.85,16-22.33,0-8.87-12.27-19.52-12.27-30.91,0-18,23.68-32.06,32-36.44m-16.73-32.85c0,37.1-50.83,51.29-50.83,77.67,0,18.52,12.27,30.13,19.06,37.48l-.55.32c-8.57-5.37-31.15-18.86-31.15-41.13,0-31.27,58.41-46.21,58.41-81.73a39.31,39.31,0,0,0-1.1-9.52l.59-.34a27.56,27.56,0,0,1,5.57,17.25" transform="translate(-125.5 -108.25)"/></g></svg>