<svg id="layer_1" data-name="layer 1" xmlns="http://www.w3.org/2000/svg" viewBox="0 0 504.5 521.01"><defs><style>.cls-1,.cls-3{fill:#68CBF6;}.cls-2,.cls-4{fill:none;stroke:#68CBF6;stroke-miterlimit:10;}.cls-2{stroke-width:4px;stroke-dasharray:8.01 8.01;}.cls-3{opacity:0.5;}.cls-4{stroke-width:2px;}.cls-5{fill:#fff;}</style></defs><title>Python</title><g id="bubbles"><path class="cls-1" d="M216.16,302.6a190.94,190.94,0,0,0,14.58-31.86c14.42-40.56,11.86-95.1,48.07-124.69,18.18-14.88,44-18.78,66.86-12.77,27.34,7.06,47.17,26.29,64.3,47.77,10.37,13.07,18,27.8,29.15,40.42,12.47,14,26.74,26,42.06,36.8,48.08,33.81,126.5,47.78,122,121.7-3.76,59.19-37.11,113-77.68,154.29-30.65,31.1-67.15,62.35-111.32,70.76-41.17,7.82-83.54-10.21-109.83-42.36-9.76-12-17.58-25.84-29-36.51C239.9,493,170.34,505,149.91,454.64c-4.66-11.42-5.56-24-4.81-36.36,1.5-23.14,9.31-46.73,24.94-64.3,11.42-12.92,25.69-22.09,36.21-36.06A134.78,134.78,0,0,0,216.16,302.6Z" transform="translate(-120.57 -108.25)"/><path class="cls-2" d="M202.64,297a211.07,211.07,0,0,0,15.78-34.56c15.77-44,12.92-103.21,52.13-135.36,19.83-16.23,47.92-20.44,72.56-14C372.71,121,394.34,141.69,413,165c11.27,14.12,19.54,30.19,31.7,43.87,13.53,15.17,29.15,28.24,45.68,40,52.28,36.66,137.47,52,132.51,132.21-4.06,64.3-40.27,122.59-84.44,167.52-33.2,33.8-72.86,67.75-120.79,76.77-44.77,8.41-90.74-11.12-119.29-46-10.66-13.07-19.08-28.09-31.4-39.66-38.46-36.06-114-23-136.26-77.67-5.11-12.32-6-26.14-5.26-39.51,1.5-25.09,10.21-50.79,27-69.87,12.47-14.12,27.95-24,39.21-39.06A173.28,173.28,0,0,0,202.64,297Z" transform="translate(-120.57 -108.25)"/><path class="cls-3" d="M152.46,538a136.59,136.59,0,0,1-26.14-45.82C104.23,424.74,148.4,348,213,323.48a118,118,0,0,1,18.93-5.56c5-1.05,10.06-1.8,15.17-2.4,1.65-.15,13.22-34.71,14.87-38.17a325.55,325.55,0,0,1,26.75-46.57c22.38-32.15,52.13-61.15,89.54-74.82,45.22-16.52,98-7.06,137.77,18.63,41.76,26.74,63.4,68.51,63.4,117.64-.15,89.84-53.64,179.68-119.29,237.83-68.21,60.39-181,87.89-264.27,42.81A147.57,147.57,0,0,1,152.46,538Z" transform="translate(-120.57 -108.25)"/><circle class="cls-4" cx="52.18" cy="154.84" r="16.23"/><circle class="cls-1" cx="141.72" cy="504.59" r="12.32"/><circle class="cls-4" cx="367.53" cy="52.97" r="19.23"/><circle class="cls-1" cx="401.03" cy="111.12" r="12.32"/><path id="path1948" class="cls-5" d="M370.56,262.4a144.92,144.92,0,0,0-24.25,2.07c-21.47,3.8-25.37,11.74-25.37,26.38v19.34h50.75v6.45H301.9c-14.75,0-27.66,8.86-31.7,25.72-4.66,19.33-4.86,31.39,0,51.57,3.61,15,12.22,25.73,27,25.73h17.45V396.47c0-16.74,14.49-31.52,31.69-31.52H397a25.56,25.56,0,0,0,25.37-25.78V290.85c0-13.75-11.6-24.08-25.37-26.38A158.44,158.44,0,0,0,370.56,262.4ZM343.12,278a9.67,9.67,0,1,1-9.52,9.7A9.63,9.63,0,0,1,343.12,278Z" transform="translate(-120.57 -108.25)"/><path id="path1950" class="cls-5" d="M428.7,316.64v22.53c0,17.47-14.81,32.17-31.7,32.17H346.31c-13.88,0-25.37,11.88-25.37,25.78v48.32c0,13.75,12,21.84,25.37,25.79,16.07,4.72,31.47,5.57,50.69,0,12.77-3.7,25.37-11.15,25.37-25.79V426.1H371.69v-6.44h76.05c14.75,0,20.24-10.29,25.37-25.73,5.3-15.89,5.07-31.18,0-51.57-3.64-14.68-10.6-25.72-25.37-25.72ZM400.19,439a9.67,9.67,0,1,1-9.52,9.64A9.58,9.58,0,0,1,400.19,439Z" transform="translate(-120.57 -108.25)"/></g></svg>